<mxfile host="app.diagrams.net" agent="Mozilla/5.0 (Windows NT 10.0; Win64; x64) AppleWebKit/537.36 (KHTML, like Gecko) Chrome/140.0.0.0 Safari/537.36 Edg/140.0.0.0" version="28.2.0">
  <diagram name="Page-1" id="G9Pzoce9l43paSHm1ECl">
    <mxGraphModel dx="2927" dy="1707" grid="1" gridSize="10" guides="1" tooltips="1" connect="1" arrows="1" fold="1" page="1" pageScale="1" pageWidth="850" pageHeight="1100" math="0" shadow="0">
      <root>
        <mxCell id="0" />
        <mxCell id="1" parent="0" />
        <mxCell id="MMNzTw3OOVt4LOCkiLiI-132" value="" style="verticalLabelPosition=bottom;verticalAlign=top;html=1;shape=mxgraph.basic.patternFillRect;fillStyle=diag;step=5;fillStrokeWidth=0.2;fillStrokeColor=#dddddd;shadow=0;dashed=1;strokeColor=#82b366;align=center;spacingTop=3;fontFamily=Helvetica;fontSize=12;labelBackgroundColor=default;fillColor=#d5e8d4;dashPattern=8 8;perimeterSpacing=1;strokeWidth=2;" vertex="1" parent="1">
          <mxGeometry x="2870" y="430" width="910" height="1460" as="geometry" />
        </mxCell>
        <mxCell id="MMNzTw3OOVt4LOCkiLiI-131" value="" style="verticalLabelPosition=bottom;verticalAlign=top;html=1;shape=mxgraph.basic.patternFillRect;fillStyle=diag;step=5;fillStrokeWidth=0.2;fillStrokeColor=#dddddd;shadow=0;dashed=1;strokeColor=light-dark(#030303, #996500);align=center;spacingTop=3;fontFamily=Helvetica;fontSize=12;labelBackgroundColor=default;fillColor=light-dark(#fef9e1, #36210a);dashPattern=8 8;perimeterSpacing=1;strokeWidth=2;" vertex="1" parent="1">
          <mxGeometry x="1870" y="430" width="910" height="1460" as="geometry" />
        </mxCell>
        <mxCell id="MMNzTw3OOVt4LOCkiLiI-64" value="" style="verticalLabelPosition=bottom;verticalAlign=top;html=1;shape=mxgraph.basic.corner_round_rect;dx=6;whiteSpace=wrap;shadow=0;dashed=0;strokeColor=default;align=center;spacingTop=3;fontFamily=Helvetica;fontSize=12;fontColor=#4277BB;labelBackgroundColor=default;fillColor=light-dark(#e0fff3, #ededed);" vertex="1" parent="1">
          <mxGeometry x="2080" y="1657.5" width="280" height="142.5" as="geometry" />
        </mxCell>
        <mxCell id="MMNzTw3OOVt4LOCkiLiI-27" value="" style="verticalLabelPosition=bottom;verticalAlign=top;html=1;shape=mxgraph.basic.patternFillRect;fillStyle=grid;step=5;fillStrokeWidth=0.2;fillStrokeColor=#dddddd;fillColor=light-dark(#FFD3B2,#5E3206);strokeColor=#36393d;" vertex="1" parent="1">
          <mxGeometry x="2220" y="750" width="230" height="730" as="geometry" />
        </mxCell>
        <mxCell id="MMNzTw3OOVt4LOCkiLiI-25" value="" style="verticalLabelPosition=bottom;verticalAlign=top;html=1;shape=mxgraph.basic.patternFillRect;fillStyle=grid;step=5;fillStrokeWidth=0.2;fillStrokeColor=#dddddd;fillColor=#cce5ff;strokeColor=#36393d;" vertex="1" parent="1">
          <mxGeometry x="1970" y="750" width="230" height="730" as="geometry" />
        </mxCell>
        <mxCell id="gi8R7RoCm2wsxa_REoJz-2" value="Internet" style="text;strokeColor=none;align=center;fillColor=none;html=1;verticalAlign=middle;whiteSpace=wrap;rounded=0;" parent="1" vertex="1">
          <mxGeometry x="426.59000000000003" y="125" width="60" height="30" as="geometry" />
        </mxCell>
        <mxCell id="7x6iOvIHQjB75U36rMkH-16" value="" style="rounded=0;whiteSpace=wrap;html=1;" parent="1" vertex="1">
          <mxGeometry x="760" y="510" width="580" height="700" as="geometry" />
        </mxCell>
        <mxCell id="gi8R7RoCm2wsxa_REoJz-3" value="" style="outlineConnect=0;dashed=0;verticalLabelPosition=bottom;verticalAlign=top;align=center;html=1;shape=mxgraph.aws3.internet_3;fillColor=#D2D3D3;gradientColor=none;" parent="1" vertex="1">
          <mxGeometry x="351.5" y="111" width="69.5" height="44" as="geometry" />
        </mxCell>
        <mxCell id="gi8R7RoCm2wsxa_REoJz-9" value="" style="sketch=0;verticalLabelPosition=bottom;sketch=0;aspect=fixed;html=1;verticalAlign=top;strokeColor=none;fillColor=#000000;align=center;outlineConnect=0;pointerEvents=1;shape=mxgraph.citrix2.router;" parent="1" vertex="1">
          <mxGeometry x="367" y="211" width="40" height="40" as="geometry" />
        </mxCell>
        <mxCell id="gi8R7RoCm2wsxa_REoJz-10" value="Edge Router" style="text;strokeColor=none;align=center;fillColor=none;html=1;verticalAlign=middle;whiteSpace=wrap;rounded=0;" parent="1" vertex="1">
          <mxGeometry x="395.34" y="216" width="98.75" height="30" as="geometry" />
        </mxCell>
        <mxCell id="gi8R7RoCm2wsxa_REoJz-11" value="" style="fillColor=#28A8E0;verticalLabelPosition=bottom;sketch=0;html=1;strokeColor=#ffffff;verticalAlign=top;align=center;points=[[0.145,0.145,0],[0.5,0,0],[0.855,0.145,0],[1,0.5,0],[0.855,0.855,0],[0.5,1,0],[0.145,0.855,0],[0,0.5,0]];pointerEvents=1;shape=mxgraph.cisco_safe.compositeIcon;bgIcon=ellipse;resIcon=mxgraph.cisco_safe.capability.firewall;" parent="1" vertex="1">
          <mxGeometry x="364.75" y="311" width="43" height="43" as="geometry" />
        </mxCell>
        <mxCell id="gi8R7RoCm2wsxa_REoJz-12" value="Firewall" style="text;strokeColor=none;align=center;fillColor=none;html=1;verticalAlign=middle;whiteSpace=wrap;rounded=0;" parent="1" vertex="1">
          <mxGeometry x="407" y="317.5" width="60" height="30" as="geometry" />
        </mxCell>
        <mxCell id="gi8R7RoCm2wsxa_REoJz-14" value="Core Switch" style="text;strokeColor=none;align=center;fillColor=none;html=1;verticalAlign=middle;whiteSpace=wrap;rounded=0;" parent="1" vertex="1">
          <mxGeometry x="407.75" y="418.5" width="60" height="30" as="geometry" />
        </mxCell>
        <mxCell id="gi8R7RoCm2wsxa_REoJz-15" value="" style="verticalLabelPosition=bottom;sketch=0;html=1;fillColor=#A153A0;strokeColor=#ffffff;verticalAlign=top;align=center;points=[[0,0.5,0],[0.125,0.25,0],[0.25,0,0],[0.5,0,0],[0.75,0,0],[0.875,0.25,0],[1,0.5,0],[0.875,0.75,0],[0.75,1,0],[0.5,1,0],[0.125,0.75,0]];pointerEvents=1;shape=mxgraph.cisco_safe.compositeIcon;bgIcon=mxgraph.cisco_safe.design.blank_device;resIcon=mxgraph.cisco_safe.design.l3_switch;" parent="1" vertex="1">
          <mxGeometry x="362.25" y="411" width="50" height="45" as="geometry" />
        </mxCell>
        <mxCell id="gi8R7RoCm2wsxa_REoJz-18" value="Domain Controller" style="text;strokeColor=none;align=center;fillColor=none;html=1;verticalAlign=middle;whiteSpace=wrap;rounded=0;" parent="1" vertex="1">
          <mxGeometry x="137" y="581" width="60" height="30" as="geometry" />
        </mxCell>
        <mxCell id="gi8R7RoCm2wsxa_REoJz-19" value="" style="sketch=0;pointerEvents=1;shadow=0;dashed=0;html=1;strokeColor=none;fillColor=#505050;labelPosition=center;verticalLabelPosition=bottom;verticalAlign=top;outlineConnect=0;align=center;shape=mxgraph.office.servers.file_server;" parent="1" vertex="1">
          <mxGeometry x="221.75" y="544" width="35.25" height="36" as="geometry" />
        </mxCell>
        <mxCell id="gi8R7RoCm2wsxa_REoJz-20" value="File Server" style="text;strokeColor=none;align=center;fillColor=none;html=1;verticalAlign=middle;whiteSpace=wrap;rounded=0;" parent="1" vertex="1">
          <mxGeometry x="197" y="580" width="60" height="30" as="geometry" />
        </mxCell>
        <mxCell id="gi8R7RoCm2wsxa_REoJz-23" value="" style="sketch=0;pointerEvents=1;shadow=0;dashed=0;html=1;strokeColor=none;fillColor=#505050;labelPosition=center;verticalLabelPosition=bottom;verticalAlign=top;outlineConnect=0;align=center;shape=mxgraph.office.servers.domain_controller;" parent="1" vertex="1">
          <mxGeometry x="157" y="544.5" width="32.5" height="35" as="geometry" />
        </mxCell>
        <mxCell id="gi8R7RoCm2wsxa_REoJz-25" value="" style="image;aspect=fixed;perimeter=ellipsePerimeter;html=1;align=center;shadow=0;dashed=0;fontColor=#4277BB;labelBackgroundColor=default;fontSize=12;spacingTop=3;image=img/lib/ibm/applications/app_server.svg;" parent="1" vertex="1">
          <mxGeometry x="267" y="541" width="38.5" height="38.5" as="geometry" />
        </mxCell>
        <mxCell id="FxefYaPtXIHqSpBv_Unu-31" value="App Server" style="text;strokeColor=none;align=center;fillColor=none;html=1;verticalAlign=middle;whiteSpace=wrap;rounded=0;" parent="1" vertex="1">
          <mxGeometry x="257" y="581" width="60" height="30" as="geometry" />
        </mxCell>
        <mxCell id="FxefYaPtXIHqSpBv_Unu-35" style="edgeStyle=none;rounded=0;orthogonalLoop=1;jettySize=auto;html=1;entryX=0.484;entryY=0.032;entryDx=0;entryDy=0;entryPerimeter=0;elbow=vertical;" parent="1" source="gi8R7RoCm2wsxa_REoJz-3" target="gi8R7RoCm2wsxa_REoJz-9" edge="1">
          <mxGeometry relative="1" as="geometry" />
        </mxCell>
        <mxCell id="FxefYaPtXIHqSpBv_Unu-36" style="edgeStyle=none;rounded=0;orthogonalLoop=1;jettySize=auto;html=1;entryX=0.5;entryY=0;entryDx=0;entryDy=0;entryPerimeter=0;elbow=vertical;" parent="1" source="gi8R7RoCm2wsxa_REoJz-9" target="gi8R7RoCm2wsxa_REoJz-11" edge="1">
          <mxGeometry relative="1" as="geometry" />
        </mxCell>
        <mxCell id="FxefYaPtXIHqSpBv_Unu-37" style="edgeStyle=none;rounded=0;orthogonalLoop=1;jettySize=auto;html=1;entryX=0.5;entryY=0;entryDx=0;entryDy=0;entryPerimeter=0;elbow=vertical;" parent="1" source="gi8R7RoCm2wsxa_REoJz-11" target="gi8R7RoCm2wsxa_REoJz-15" edge="1">
          <mxGeometry relative="1" as="geometry" />
        </mxCell>
        <mxCell id="FxefYaPtXIHqSpBv_Unu-51" value="" style="endArrow=classic;startArrow=classic;html=1;rounded=0;elbow=vertical;entryX=0.5;entryY=1;entryDx=0;entryDy=0;entryPerimeter=0;strokeColor=light-dark(#000000,#FF0000);" parent="1" edge="1">
          <mxGeometry width="50" height="50" relative="1" as="geometry">
            <mxPoint x="388.21" y="634" as="sourcePoint" />
            <mxPoint x="387.25" y="459" as="targetPoint" />
          </mxGeometry>
        </mxCell>
        <mxCell id="FxefYaPtXIHqSpBv_Unu-52" value="" style="endArrow=classic;startArrow=classic;html=1;rounded=0;elbow=vertical;entryX=0.003;entryY=0.848;entryDx=0;entryDy=0;entryPerimeter=0;" parent="1" target="gi8R7RoCm2wsxa_REoJz-27" edge="1">
          <mxGeometry width="50" height="50" relative="1" as="geometry">
            <mxPoint x="307.25" y="756" as="sourcePoint" />
            <mxPoint x="357.25" y="706" as="targetPoint" />
          </mxGeometry>
        </mxCell>
        <mxCell id="FxefYaPtXIHqSpBv_Unu-54" value="" style="endArrow=classic;startArrow=classic;html=1;rounded=0;elbow=vertical;exitX=0.975;exitY=0.857;exitDx=0;exitDy=0;exitPerimeter=0;" parent="1" source="gi8R7RoCm2wsxa_REoJz-27" target="gi8R7RoCm2wsxa_REoJz-35" edge="1">
          <mxGeometry width="50" height="50" relative="1" as="geometry">
            <mxPoint x="397" y="651" as="sourcePoint" />
            <mxPoint x="447" y="601" as="targetPoint" />
          </mxGeometry>
        </mxCell>
        <mxCell id="FxefYaPtXIHqSpBv_Unu-55" value="" style="endArrow=classic;startArrow=classic;html=1;rounded=0;elbow=vertical;entryX=0.5;entryY=1;entryDx=0;entryDy=0;strokeColor=light-dark(#000000,#FF0000);entryPerimeter=0;" parent="1" target="gi8R7RoCm2wsxa_REoJz-27" edge="1">
          <mxGeometry width="50" height="50" relative="1" as="geometry">
            <mxPoint x="387" y="751" as="sourcePoint" />
            <mxPoint x="392" y="711" as="targetPoint" />
          </mxGeometry>
        </mxCell>
        <mxCell id="FxefYaPtXIHqSpBv_Unu-57" value="" style="endArrow=classic;startArrow=classic;html=1;rounded=0;elbow=vertical;exitX=0.896;exitY=0.929;exitDx=0;exitDy=0;exitPerimeter=0;strokeColor=light-dark(#000000,#FF0000);" parent="1" source="gi8R7RoCm2wsxa_REoJz-15" target="gi8R7RoCm2wsxa_REoJz-38" edge="1">
          <mxGeometry width="50" height="50" relative="1" as="geometry">
            <mxPoint x="417" y="531" as="sourcePoint" />
            <mxPoint x="467" y="481" as="targetPoint" />
          </mxGeometry>
        </mxCell>
        <mxCell id="FxefYaPtXIHqSpBv_Unu-58" value="" style="endArrow=classic;startArrow=classic;html=1;rounded=0;elbow=vertical;entryX=0.104;entryY=1.005;entryDx=0;entryDy=0;entryPerimeter=0;strokeColor=light-dark(#000000,#FF0000);" parent="1" target="gi8R7RoCm2wsxa_REoJz-15" edge="1">
          <mxGeometry width="50" height="50" relative="1" as="geometry">
            <mxPoint x="292" y="539" as="sourcePoint" />
            <mxPoint x="342" y="489" as="targetPoint" />
          </mxGeometry>
        </mxCell>
        <mxCell id="FxefYaPtXIHqSpBv_Unu-61" value="" style="endArrow=classic;startArrow=classic;html=1;rounded=0;elbow=vertical;entryX=-0.033;entryY=0.776;entryDx=0;entryDy=0;entryPerimeter=0;strokeColor=light-dark(#000000,#FF0000);" parent="1" target="gi8R7RoCm2wsxa_REoJz-15" edge="1">
          <mxGeometry width="50" height="50" relative="1" as="geometry">
            <mxPoint x="227" y="535" as="sourcePoint" />
            <mxPoint x="277" y="485" as="targetPoint" />
          </mxGeometry>
        </mxCell>
        <mxCell id="FxefYaPtXIHqSpBv_Unu-62" value="" style="endArrow=classic;startArrow=classic;html=1;rounded=0;elbow=vertical;strokeColor=light-dark(#000000,#FF0000);" parent="1" edge="1">
          <mxGeometry width="50" height="50" relative="1" as="geometry">
            <mxPoint x="167" y="535" as="sourcePoint" />
            <mxPoint x="357" y="441" as="targetPoint" />
          </mxGeometry>
        </mxCell>
        <mxCell id="gi8R7RoCm2wsxa_REoJz-29" value="Access Switch" style="text;strokeColor=none;align=center;fillColor=none;html=1;verticalAlign=middle;whiteSpace=wrap;rounded=0;" parent="1" vertex="1">
          <mxGeometry x="407" y="648.5" width="60" height="30" as="geometry" />
        </mxCell>
        <mxCell id="gi8R7RoCm2wsxa_REoJz-35" value="" style="verticalLabelPosition=bottom;sketch=0;aspect=fixed;html=1;verticalAlign=top;strokeColor=none;align=center;outlineConnect=0;shape=mxgraph.citrix.desktop;" parent="1" vertex="1">
          <mxGeometry x="433.66999999999996" y="746" width="45.41" height="50" as="geometry" />
        </mxCell>
        <mxCell id="gi8R7RoCm2wsxa_REoJz-30" value="" style="sketch=0;aspect=fixed;pointerEvents=1;shadow=0;dashed=0;html=1;strokeColor=none;labelPosition=center;verticalLabelPosition=bottom;verticalAlign=top;align=center;fillColor=#00188D;shape=mxgraph.azure.laptop" parent="1" vertex="1">
          <mxGeometry x="287" y="756" width="50" height="30" as="geometry" />
        </mxCell>
        <mxCell id="gi8R7RoCm2wsxa_REoJz-31" value="New Laptops" style="text;strokeColor=none;align=center;fillColor=none;html=1;verticalAlign=middle;whiteSpace=wrap;rounded=0;" parent="1" vertex="1">
          <mxGeometry x="282" y="796" width="60" height="30" as="geometry" />
        </mxCell>
        <mxCell id="gi8R7RoCm2wsxa_REoJz-32" value="" style="sketch=0;aspect=fixed;pointerEvents=1;shadow=0;dashed=0;html=1;strokeColor=none;labelPosition=center;verticalLabelPosition=bottom;verticalAlign=top;align=center;fillColor=light-dark(#00188D,#FF9999);shape=mxgraph.azure.laptop" parent="1" vertex="1">
          <mxGeometry x="362.25" y="756" width="50" height="30" as="geometry" />
        </mxCell>
        <mxCell id="gi8R7RoCm2wsxa_REoJz-33" value="Rebuilt Laptops" style="text;strokeColor=light-dark(transparent,#FF0000);align=center;fillColor=none;html=1;verticalAlign=middle;whiteSpace=wrap;rounded=0;" parent="1" vertex="1">
          <mxGeometry x="356.75" y="796" width="60" height="30" as="geometry" />
        </mxCell>
        <mxCell id="gi8R7RoCm2wsxa_REoJz-36" value="Desktop PCs" style="text;strokeColor=none;align=center;fillColor=none;html=1;verticalAlign=middle;whiteSpace=wrap;rounded=0;" parent="1" vertex="1">
          <mxGeometry x="426.59000000000003" y="796" width="60" height="30" as="geometry" />
        </mxCell>
        <mxCell id="gi8R7RoCm2wsxa_REoJz-38" value="" style="sketch=0;verticalLabelPosition=bottom;sketch=0;aspect=fixed;html=1;verticalAlign=top;strokeColor=none;fillColor=#000000;align=center;outlineConnect=0;pointerEvents=1;shape=mxgraph.citrix2.router;" parent="1" vertex="1">
          <mxGeometry x="494.09000000000003" y="535" width="45" height="45" as="geometry" />
        </mxCell>
        <mxCell id="gi8R7RoCm2wsxa_REoJz-39" value="VPN Gateway" style="text;strokeColor=none;align=center;fillColor=none;html=1;verticalAlign=middle;whiteSpace=wrap;rounded=0;" parent="1" vertex="1">
          <mxGeometry x="486.59000000000003" y="581" width="60" height="30" as="geometry" />
        </mxCell>
        <mxCell id="FxefYaPtXIHqSpBv_Unu-1" value="" style="endArrow=classic;html=1;rounded=0;exitX=0.5;exitY=1;exitDx=0;exitDy=0;exitPerimeter=0;" parent="1" source="gi8R7RoCm2wsxa_REoJz-3" target="gi8R7RoCm2wsxa_REoJz-9" edge="1">
          <mxGeometry width="50" height="50" relative="1" as="geometry">
            <mxPoint x="447" y="391" as="sourcePoint" />
            <mxPoint x="597" y="371" as="targetPoint" />
          </mxGeometry>
        </mxCell>
        <mxCell id="gi8R7RoCm2wsxa_REoJz-27" value="" style="verticalLabelPosition=bottom;sketch=0;html=1;fillColor=#A153A0;strokeColor=#ffffff;verticalAlign=top;align=center;points=[[0,0.5,0],[0.125,0.25,0],[0.25,0,0],[0.5,0,0],[0.75,0,0],[0.875,0.25,0],[1,0.5,0],[0.875,0.75,0],[0.75,1,0],[0.5,1,0],[0.125,0.75,0]];pointerEvents=1;shape=mxgraph.cisco_safe.compositeIcon;bgIcon=mxgraph.cisco_safe.design.blank_device;resIcon=mxgraph.cisco_safe.design.access_switch_2;" parent="1" vertex="1">
          <mxGeometry x="361.75" y="641" width="50" height="45" as="geometry" />
        </mxCell>
        <mxCell id="CjsxGIAAwSK_9YGi35-y-1" value="&lt;font style=&quot;color: light-dark(rgb(0, 0, 0), rgb(255, 51, 51));&quot;&gt;SECURITY GAP: Same network access as verified devices despite unknown hardware history&lt;/font&gt;" style="text;strokeColor=none;align=center;fillColor=none;html=1;verticalAlign=middle;whiteSpace=wrap;rounded=0;" parent="1" vertex="1">
          <mxGeometry x="117.00000000000006" y="861" width="290" height="30" as="geometry" />
        </mxCell>
        <mxCell id="CjsxGIAAwSK_9YGi35-y-2" value="&lt;font style=&quot;color: light-dark(rgb(0, 0, 0), rgb(255, 51, 51));&quot;&gt;Can access sensitive&amp;nbsp; data&lt;/font&gt;" style="text;strokeColor=none;align=center;fillColor=none;html=1;verticalAlign=middle;whiteSpace=wrap;rounded=0;" parent="1" vertex="1">
          <mxGeometry x="87" y="618.5" width="290" height="30" as="geometry" />
        </mxCell>
        <mxCell id="CjsxGIAAwSK_9YGi35-y-3" value="Current assumption: All authenticated devices equally trusted" style="text;whiteSpace=wrap;html=1;" parent="1" vertex="1">
          <mxGeometry x="87" y="900" width="360" height="40" as="geometry" />
        </mxCell>
        <mxCell id="CjsxGIAAwSK_9YGi35-y-4" value="&lt;div&gt;&lt;b style=&quot;&quot;&gt;&lt;font style=&quot;font-size: 14px;&quot;&gt;Network Architecture Demonstrating Security Gaps&lt;/font&gt;&lt;/b&gt;&lt;/div&gt;&lt;div&gt;&lt;b&gt;&lt;font size=&quot;3&quot;&gt;&lt;br&gt;&lt;/font&gt;&lt;/b&gt;&lt;/div&gt;&lt;div&gt;&lt;br&gt;&lt;/div&gt;" style="text;whiteSpace=wrap;html=1;align=center;" parent="1" vertex="1">
          <mxGeometry x="150.25" y="20" width="472" height="40" as="geometry" />
        </mxCell>
        <mxCell id="CjsxGIAAwSK_9YGi35-y-5" value="&lt;b&gt;Key Security Problems:&amp;nbsp;&lt;/b&gt;&lt;div&gt;&lt;div&gt;&lt;br&gt;&lt;/div&gt;&lt;div&gt;- BIOS firmware downloaded without file integrity verification&amp;nbsp;&lt;/div&gt;&lt;div&gt;- USB devices used without malware scanning before rebuild process&amp;nbsp;&lt;/div&gt;&lt;div&gt;- Standardized procedures exist but compliance monitoring absent&lt;/div&gt;&lt;div&gt;&amp;nbsp;- Manual verification steps may be skipped due to human error&amp;nbsp;&lt;/div&gt;&lt;div&gt;- Single infected USB can compromise multiple laptop rebuilds&lt;/div&gt;&lt;/div&gt;&lt;div&gt;- Client A managed laptop used for production imaging without security verification&amp;nbsp;&lt;/div&gt;&lt;div&gt;- No malware scanning of build source laptop before image creation&amp;nbsp;&lt;/div&gt;&lt;div&gt;- Mixed-use laptop environment: daily work activities + production rebuild processes&amp;nbsp;&lt;/div&gt;&lt;div&gt;- No isolation between general computing and secure rebuild operations&lt;/div&gt;&lt;div&gt;-Risk amplification: Single infected source affects all rebuild outputs&lt;/div&gt;&lt;div&gt;-Potential impact: All Client A laptops compromised from one vulnerabilityBuild frequency: Multiple sessions per week&lt;/div&gt;" style="text;whiteSpace=wrap;html=1;" parent="1" vertex="1">
          <mxGeometry x="312" y="1250" width="660" height="100" as="geometry" />
        </mxCell>
        <mxCell id="7x6iOvIHQjB75U36rMkH-2" value="" style="rounded=0;whiteSpace=wrap;html=1;strokeColor=light-dark(#000000,#4BDFFF);" parent="1" vertex="1">
          <mxGeometry x="790" y="770" width="510" height="150" as="geometry" />
        </mxCell>
        <mxCell id="7x6iOvIHQjB75U36rMkH-5" value="&lt;span style=&quot;background-color: transparent; color: light-dark(rgb(0, 0, 0), rgb(255, 255, 255));&quot;&gt;Connection: Client A WiFi&lt;/span&gt;&lt;br&gt;&lt;span style=&quot;background-color: transparent; color: light-dark(rgb(0, 0, 0), rgb(255, 255, 255));&quot;&gt;BIOS Downloads: Manufacturer websites&lt;/span&gt;&lt;br&gt;&lt;span style=&quot;background-color: transparent;&quot;&gt;&lt;b style=&quot;&quot;&gt;&lt;font style=&quot;color: light-dark(rgb(0, 0, 0), rgb(255, 255, 255));&quot;&gt;Security Gap: No hash verification&lt;/font&gt;&lt;/b&gt;&lt;/span&gt;&lt;br&gt;&lt;br&gt;&lt;span style=&quot;background-color: transparent; color: light-dark(rgb(0, 0, 0), rgb(255, 255, 255));&quot;&gt;❌&amp;nbsp;No Malware Scanning&lt;/span&gt;&lt;br&gt;&lt;span style=&quot;background-color: transparent; color: light-dark(rgb(0, 0, 0), rgb(255, 255, 255));&quot;&gt;❓ Verification May Be Skipped&lt;/span&gt;&lt;br&gt;&lt;span style=&quot;background-color: transparent; color: light-dark(rgb(0, 0, 0), rgb(255, 255, 255));&quot;&gt;⚠️ No Compliance Monitoring&lt;/span&gt;" style="text;strokeColor=none;align=left;fillColor=none;html=1;verticalAlign=middle;whiteSpace=wrap;rounded=0;" parent="1" vertex="1">
          <mxGeometry x="980" y="840" width="230" height="6" as="geometry" />
        </mxCell>
        <mxCell id="7x6iOvIHQjB75U36rMkH-7" value="" style="sketch=0;pointerEvents=1;shadow=0;dashed=0;html=1;strokeColor=none;fillColor=#005F4B;labelPosition=center;verticalLabelPosition=bottom;verticalAlign=top;align=center;outlineConnect=0;shape=mxgraph.veeam2.usb_drive;" parent="1" vertex="1">
          <mxGeometry x="840" y="809" width="40" height="17" as="geometry" />
        </mxCell>
        <mxCell id="7x6iOvIHQjB75U36rMkH-9" value="&lt;div style=&quot;text-align: left;&quot;&gt;&lt;b style=&quot;background-color: transparent; color: light-dark(rgb(0, 0, 0), rgb(255, 255, 255));&quot;&gt;&lt;font style=&quot;font-size: 18px;&quot;&gt;Rebuild Laptop Workstation&lt;/font&gt;&lt;/b&gt;&lt;/div&gt;&lt;div style=&quot;text-align: left;&quot;&gt;&lt;b&gt;&lt;font style=&quot;font-size: 18px;&quot;&gt;&lt;br&gt;&lt;/font&gt;&lt;/b&gt;&lt;/div&gt;&lt;div&gt;&lt;div style=&quot;text-align: left;&quot;&gt;&lt;ul&gt;&lt;li&gt;&lt;span style=&quot;background-color: transparent; color: light-dark(rgb(0, 0, 0), rgb(255, 255, 255));&quot;&gt;Device Type: Single brand laptop model&lt;/span&gt;&lt;/li&gt;&lt;li&gt;&lt;span style=&quot;background-color: transparent; color: light-dark(rgb(0, 0, 0), rgb(255, 255, 255));&quot;&gt;Process: Standardized rebuild procedure&lt;/span&gt;&lt;/li&gt;&lt;li&gt;&lt;span style=&quot;background-color: transparent; color: light-dark(rgb(0, 0, 0), rgb(255, 255, 255));&quot;&gt;Connection: Client A WiFi&lt;/span&gt;&lt;/li&gt;&lt;li&gt;&lt;span style=&quot;background-color: transparent; color: light-dark(rgb(0, 0, 0), rgb(255, 255, 255));&quot;&gt;BIOS Downloads: Manufacturer website&lt;/span&gt;&lt;/li&gt;&lt;li&gt;&lt;span style=&quot;background-color: transparent;&quot;&gt;&lt;font style=&quot;color: light-dark(rgb(0, 0, 0), rgb(255, 0, 0));&quot;&gt;Security Gap: No hash verification&lt;/font&gt;&lt;/span&gt;&lt;/li&gt;&lt;/ul&gt;&lt;/div&gt;&lt;/div&gt;" style="text;strokeColor=none;align=center;fillColor=none;html=1;verticalAlign=middle;whiteSpace=wrap;rounded=0;" parent="1" vertex="1">
          <mxGeometry x="820" y="388.5" width="370" height="30" as="geometry" />
        </mxCell>
        <mxCell id="7x6iOvIHQjB75U36rMkH-18" value="&lt;br&gt;&lt;div&gt;&lt;div style=&quot;text-align: left;&quot;&gt;&lt;br&gt;&lt;/div&gt;&lt;/div&gt;" style="rounded=0;whiteSpace=wrap;html=1;strokeColor=light-dark(#000000,#66B2FF);" parent="1" vertex="1">
          <mxGeometry x="790" y="1030" width="510" height="140" as="geometry" />
        </mxCell>
        <mxCell id="7x6iOvIHQjB75U36rMkH-20" value="Laptop to rebuild" style="text;strokeColor=none;align=center;fillColor=none;html=1;verticalAlign=middle;whiteSpace=wrap;rounded=0;rotation=0;" parent="1" vertex="1">
          <mxGeometry x="785.65" y="1120" width="168.7" height="26" as="geometry" />
        </mxCell>
        <mxCell id="7x6iOvIHQjB75U36rMkH-22" value="❓ Verification may be skipped&lt;div&gt;&lt;font style=&quot;color: light-dark(rgb(0, 0, 0), rgb(255, 0, 0));&quot;&gt;Potential malware propagation pat&lt;/font&gt;h&lt;/div&gt;" style="text;whiteSpace=wrap;html=1;" parent="1" vertex="1">
          <mxGeometry x="1050" y="950" width="290" height="40" as="geometry" />
        </mxCell>
        <mxCell id="7x6iOvIHQjB75U36rMkH-23" value="" style="endArrow=none;dashed=1;html=1;dashPattern=1 3;strokeWidth=2;rounded=0;exitX=0.381;exitY=1.168;exitDx=0;exitDy=0;exitPerimeter=0;entryX=0;entryY=0.5;entryDx=0;entryDy=0;" parent="1" source="7x6iOvIHQjB75U36rMkH-24" target="7x6iOvIHQjB75U36rMkH-2" edge="1">
          <mxGeometry width="50" height="50" relative="1" as="geometry">
            <mxPoint x="470" y="630" as="sourcePoint" />
            <mxPoint x="750" y="840" as="targetPoint" />
          </mxGeometry>
        </mxCell>
        <mxCell id="7x6iOvIHQjB75U36rMkH-38" value="" style="sketch=0;aspect=fixed;pointerEvents=1;shadow=0;dashed=0;html=1;strokeColor=none;labelPosition=center;verticalLabelPosition=bottom;verticalAlign=top;align=center;fillColor=#00188D;shape=mxgraph.azure.laptop" parent="1" vertex="1">
          <mxGeometry x="840" y="1070" width="60" height="36" as="geometry" />
        </mxCell>
        <mxCell id="7x6iOvIHQjB75U36rMkH-39" value="USB security gaps" style="text;whiteSpace=wrap;html=1;" parent="1" vertex="1">
          <mxGeometry x="810" y="840" width="130" height="40" as="geometry" />
        </mxCell>
        <mxCell id="7x6iOvIHQjB75U36rMkH-42" value="" style="endArrow=none;dashed=1;html=1;dashPattern=1 3;strokeWidth=2;rounded=0;exitX=0.381;exitY=1.168;exitDx=0;exitDy=0;exitPerimeter=0;entryX=0;entryY=0.5;entryDx=0;entryDy=0;" parent="1" source="gi8R7RoCm2wsxa_REoJz-29" target="7x6iOvIHQjB75U36rMkH-24" edge="1">
          <mxGeometry width="50" height="50" relative="1" as="geometry">
            <mxPoint x="430" y="684" as="sourcePoint" />
            <mxPoint x="800" y="820" as="targetPoint" />
          </mxGeometry>
        </mxCell>
        <mxCell id="7x6iOvIHQjB75U36rMkH-24" value="WiFi Connection to Client A Network" style="text;strokeColor=none;align=center;fillColor=none;html=1;verticalAlign=middle;whiteSpace=wrap;rounded=0;" parent="1" vertex="1">
          <mxGeometry x="592" y="766" width="100" height="30" as="geometry" />
        </mxCell>
        <mxCell id="7x6iOvIHQjB75U36rMkH-43" value="" style="endArrow=classic;html=1;rounded=0;entryX=0.5;entryY=0;entryDx=0;entryDy=0;strokeColor=light-dark(#000000,#FF0000);" parent="1" source="7x6iOvIHQjB75U36rMkH-2" target="7x6iOvIHQjB75U36rMkH-18" edge="1">
          <mxGeometry width="50" height="50" relative="1" as="geometry">
            <mxPoint x="440" y="970" as="sourcePoint" />
            <mxPoint x="490" y="920" as="targetPoint" />
          </mxGeometry>
        </mxCell>
        <mxCell id="7x6iOvIHQjB75U36rMkH-45" value="&lt;div style=&quot;text-align: left;&quot;&gt;&lt;div&gt;❌ No pre-rebuild malware scan&amp;nbsp;&lt;/div&gt;&lt;div&gt;❌ No post-build verification&amp;nbsp;&lt;/div&gt;&lt;div&gt;❓ Build errors undetected&amp;nbsp;&lt;/div&gt;&lt;div&gt;⚠️ Quality control gaps&lt;/div&gt;&lt;/div&gt;" style="text;strokeColor=none;align=center;fillColor=none;html=1;verticalAlign=middle;whiteSpace=wrap;rounded=0;" parent="1" vertex="1">
          <mxGeometry x="880" y="1085" width="370" height="30" as="geometry" />
        </mxCell>
        <mxCell id="7x6iOvIHQjB75U36rMkH-48" value="" style="endArrow=none;dashed=1;html=1;dashPattern=1 3;strokeWidth=2;rounded=0;entryX=0;entryY=0.5;entryDx=0;entryDy=0;exitX=0.5;exitY=1;exitDx=0;exitDy=0;" parent="1" source="gi8R7RoCm2wsxa_REoJz-33" target="7x6iOvIHQjB75U36rMkH-18" edge="1">
          <mxGeometry width="50" height="50" relative="1" as="geometry">
            <mxPoint x="440" y="980" as="sourcePoint" />
            <mxPoint x="490" y="930" as="targetPoint" />
          </mxGeometry>
        </mxCell>
        <mxCell id="7x6iOvIHQjB75U36rMkH-52" value="" style="rounded=0;whiteSpace=wrap;html=1;strokeColor=light-dark(#000000,#4BDFFF);" parent="1" vertex="1">
          <mxGeometry x="790" y="550" width="510" height="129" as="geometry" />
        </mxCell>
        <mxCell id="7x6iOvIHQjB75U36rMkH-49" value="" style="sketch=0;aspect=fixed;pointerEvents=1;shadow=0;dashed=0;html=1;strokeColor=none;labelPosition=center;verticalLabelPosition=bottom;verticalAlign=top;align=center;fillColor=light-dark(#00188D,#FF9999);shape=mxgraph.azure.laptop" parent="1" vertex="1">
          <mxGeometry x="840" y="575" width="60" height="36" as="geometry" />
        </mxCell>
        <mxCell id="7x6iOvIHQjB75U36rMkH-50" value="&lt;span style=&quot;text-align: left;&quot;&gt;Rebuilding Engineer&#39;s laptop (Client A managed)&lt;/span&gt;" style="text;strokeColor=none;align=center;fillColor=none;html=1;verticalAlign=middle;whiteSpace=wrap;rounded=0;rotation=0;" parent="1" vertex="1">
          <mxGeometry x="800" y="630" width="168.7" height="26" as="geometry" />
        </mxCell>
        <mxCell id="7x6iOvIHQjB75U36rMkH-51" value="&lt;div style=&quot;text-align: left;&quot;&gt;- Simultaneous connections: WiFi + VPN&amp;nbsp;&lt;/div&gt;&lt;div style=&quot;text-align: left;&quot;&gt;- VPN: Required for runbook access&amp;nbsp;&lt;/div&gt;&lt;div style=&quot;text-align: left;&quot;&gt;- WiFi: Required for BIOS firmware downloads&amp;nbsp;&lt;/div&gt;&lt;div style=&quot;text-align: left;&quot;&gt;&lt;br&gt;&lt;/div&gt;&lt;div style=&quot;text-align: left;&quot;&gt;❌ No malware scan before use as build source&lt;br&gt;❌Dual network connections create security gaps&lt;br&gt;⚠️ No network separation during build process&lt;br&gt;⚠️ Multiple connection paths increase attack risk&lt;/div&gt;" style="text;strokeColor=none;align=center;fillColor=none;html=1;verticalAlign=middle;whiteSpace=wrap;rounded=0;" parent="1" vertex="1">
          <mxGeometry x="930" y="599.5" width="370" height="30" as="geometry" />
        </mxCell>
        <mxCell id="7x6iOvIHQjB75U36rMkH-54" value="" style="endArrow=classic;html=1;rounded=0;entryX=0.5;entryY=0;entryDx=0;entryDy=0;exitX=0.5;exitY=1;exitDx=0;exitDy=0;" parent="1" source="7x6iOvIHQjB75U36rMkH-52" target="7x6iOvIHQjB75U36rMkH-2" edge="1">
          <mxGeometry width="50" height="50" relative="1" as="geometry">
            <mxPoint x="1010" y="680" as="sourcePoint" />
            <mxPoint x="910" y="830" as="targetPoint" />
          </mxGeometry>
        </mxCell>
        <mxCell id="7x6iOvIHQjB75U36rMkH-55" value="laptop image copied to USB&lt;div&gt;&lt;font style=&quot;color: light-dark(rgb(0, 0, 0), rgb(255, 0, 0));&quot;&gt;Potential malware propagation pat&lt;/font&gt;h&lt;/div&gt;" style="text;whiteSpace=wrap;html=1;" parent="1" vertex="1">
          <mxGeometry x="1050" y="700" width="290" height="40" as="geometry" />
        </mxCell>
        <mxCell id="7x6iOvIHQjB75U36rMkH-58" value="Build frequency: Twice a week" style="text;whiteSpace=wrap;html=1;" parent="1" vertex="1">
          <mxGeometry x="850" y="230" width="270" height="40" as="geometry" />
        </mxCell>
        <mxCell id="7x6iOvIHQjB75U36rMkH-59" value="" style="endArrow=none;dashed=1;html=1;dashPattern=1 3;strokeWidth=2;rounded=0;exitX=0.381;exitY=1.168;exitDx=0;exitDy=0;exitPerimeter=0;entryX=0;entryY=0.5;entryDx=0;entryDy=0;" parent="1" source="7x6iOvIHQjB75U36rMkH-60" target="7x6iOvIHQjB75U36rMkH-52" edge="1">
          <mxGeometry width="50" height="50" relative="1" as="geometry">
            <mxPoint x="430" y="673" as="sourcePoint" />
            <mxPoint x="592" y="770" as="targetPoint" />
          </mxGeometry>
        </mxCell>
        <mxCell id="7x6iOvIHQjB75U36rMkH-61" value="" style="endArrow=none;dashed=1;html=1;dashPattern=1 3;strokeWidth=2;rounded=0;exitX=0.381;exitY=1.168;exitDx=0;exitDy=0;exitPerimeter=0;entryX=0;entryY=0.5;entryDx=0;entryDy=0;" parent="1" target="7x6iOvIHQjB75U36rMkH-60" edge="1">
          <mxGeometry width="50" height="50" relative="1" as="geometry">
            <mxPoint x="430" y="673" as="sourcePoint" />
            <mxPoint x="790" y="615" as="targetPoint" />
          </mxGeometry>
        </mxCell>
        <mxCell id="7x6iOvIHQjB75U36rMkH-60" value="BIOS download" style="text;strokeColor=none;align=center;fillColor=none;html=1;verticalAlign=middle;whiteSpace=wrap;rounded=0;" parent="1" vertex="1">
          <mxGeometry x="592" y="630" width="100" height="10" as="geometry" />
        </mxCell>
        <mxCell id="7x6iOvIHQjB75U36rMkH-65" value="" style="endArrow=none;dashed=1;html=1;dashPattern=1 3;strokeWidth=2;rounded=0;exitX=0.381;exitY=1.168;exitDx=0;exitDy=0;exitPerimeter=0;entryX=0;entryY=0.5;entryDx=0;entryDy=0;" parent="1" source="7x6iOvIHQjB75U36rMkH-66" target="7x6iOvIHQjB75U36rMkH-52" edge="1">
          <mxGeometry width="50" height="50" relative="1" as="geometry">
            <mxPoint x="539.09" y="559" as="sourcePoint" />
            <mxPoint x="701.09" y="656" as="targetPoint" />
          </mxGeometry>
        </mxCell>
        <mxCell id="7x6iOvIHQjB75U36rMkH-67" value="" style="endArrow=none;dashed=1;html=1;dashPattern=1 3;strokeWidth=2;rounded=0;exitX=0.381;exitY=1.168;exitDx=0;exitDy=0;exitPerimeter=0;entryX=0;entryY=0.5;entryDx=0;entryDy=0;" parent="1" target="7x6iOvIHQjB75U36rMkH-66" edge="1">
          <mxGeometry width="50" height="50" relative="1" as="geometry">
            <mxPoint x="539.09" y="559" as="sourcePoint" />
            <mxPoint x="790" y="615" as="targetPoint" />
          </mxGeometry>
        </mxCell>
        <mxCell id="7x6iOvIHQjB75U36rMkH-66" value="Runbook access" style="text;strokeColor=none;align=center;fillColor=none;html=1;verticalAlign=middle;whiteSpace=wrap;rounded=0;" parent="1" vertex="1">
          <mxGeometry x="600" y="571" width="100" height="10" as="geometry" />
        </mxCell>
        <mxCell id="03RfwMxz8nHa0Dh4N93t-2" value="" style="rounded=0;whiteSpace=wrap;html=1;" parent="1" vertex="1">
          <mxGeometry x="4610" y="829.5" width="580" height="700" as="geometry" />
        </mxCell>
        <mxCell id="03RfwMxz8nHa0Dh4N93t-32" value="Rebuilt Laptops" style="text;strokeColor=light-dark(transparent,#FF0000);align=center;fillColor=none;html=1;verticalAlign=middle;whiteSpace=wrap;rounded=0;" parent="1" vertex="1">
          <mxGeometry x="4730" y="1639.5" width="60" height="30" as="geometry" />
        </mxCell>
        <mxCell id="03RfwMxz8nHa0Dh4N93t-38" value="&lt;font style=&quot;color: light-dark(rgb(0, 0, 0), rgb(255, 51, 51));&quot;&gt;SECURITY GAP: Same network access as verified devices despite unknown hardware history&lt;/font&gt;" style="text;strokeColor=none;align=center;fillColor=none;html=1;verticalAlign=middle;whiteSpace=wrap;rounded=0;" parent="1" vertex="1">
          <mxGeometry x="2260" y="2200" width="290" height="30" as="geometry" />
        </mxCell>
        <mxCell id="03RfwMxz8nHa0Dh4N93t-40" value="Current assumption: All authenticated devices equally trusted" style="text;whiteSpace=wrap;html=1;" parent="1" vertex="1">
          <mxGeometry x="2211.9999999999995" y="2310" width="360" height="40" as="geometry" />
        </mxCell>
        <mxCell id="03RfwMxz8nHa0Dh4N93t-41" value="&lt;b&gt;&lt;font style=&quot;background-color: rgb(255, 254, 254); font-size: 20px;&quot;&gt;Network Access Layer&lt;/font&gt;&lt;/b&gt;" style="text;whiteSpace=wrap;html=1;align=center;" parent="1" vertex="1">
          <mxGeometry x="2084.08" y="410.5" width="472" height="40" as="geometry" />
        </mxCell>
        <mxCell id="03RfwMxz8nHa0Dh4N93t-42" value="&lt;b&gt;Key Security Problems:&amp;nbsp;&lt;/b&gt;&lt;div&gt;&lt;div&gt;&lt;br&gt;&lt;/div&gt;&lt;div&gt;- BIOS firmware downloaded without file integrity verification&amp;nbsp;&lt;/div&gt;&lt;div&gt;- USB devices used without malware scanning before rebuild process&amp;nbsp;&lt;/div&gt;&lt;div&gt;- Standardized procedures exist but compliance monitoring absent&lt;/div&gt;&lt;div&gt;&amp;nbsp;- Manual verification steps may be skipped due to human error&amp;nbsp;&lt;/div&gt;&lt;div&gt;- Single infected USB can compromise multiple laptop rebuilds&lt;/div&gt;&lt;/div&gt;&lt;div&gt;- Client A managed laptop used for production imaging without security verification&amp;nbsp;&lt;/div&gt;&lt;div&gt;- No malware scanning of build source laptop before image creation&amp;nbsp;&lt;/div&gt;&lt;div&gt;- Mixed-use laptop environment: daily work activities + production rebuild processes&amp;nbsp;&lt;/div&gt;&lt;div&gt;- No isolation between general computing and secure rebuild operations&lt;/div&gt;&lt;div&gt;-Risk amplification: Single infected source affects all rebuild outputs&lt;/div&gt;&lt;div&gt;-Potential impact: All Client A laptops compromised from one vulnerabilityBuild frequency: Multiple sessions per week&lt;/div&gt;" style="text;whiteSpace=wrap;html=1;" parent="1" vertex="1">
          <mxGeometry x="2140" y="2400" width="660" height="100" as="geometry" />
        </mxCell>
        <mxCell id="03RfwMxz8nHa0Dh4N93t-43" value="" style="rounded=0;whiteSpace=wrap;html=1;strokeColor=light-dark(#000000,#4BDFFF);" parent="1" vertex="1">
          <mxGeometry x="4640" y="1089.5" width="510" height="150" as="geometry" />
        </mxCell>
        <mxCell id="03RfwMxz8nHa0Dh4N93t-44" value="&lt;span style=&quot;background-color: transparent; color: light-dark(rgb(0, 0, 0), rgb(255, 255, 255));&quot;&gt;Connection: Client A WiFi&lt;/span&gt;&lt;br&gt;&lt;span style=&quot;background-color: transparent; color: light-dark(rgb(0, 0, 0), rgb(255, 255, 255));&quot;&gt;BIOS Downloads: Manufacturer websites&lt;/span&gt;&lt;br&gt;&lt;span style=&quot;background-color: transparent;&quot;&gt;&lt;b style=&quot;&quot;&gt;&lt;font style=&quot;color: light-dark(rgb(0, 0, 0), rgb(255, 255, 255));&quot;&gt;Security Gap: No hash verification&lt;/font&gt;&lt;/b&gt;&lt;/span&gt;&lt;br&gt;&lt;br&gt;&lt;span style=&quot;background-color: transparent; color: light-dark(rgb(0, 0, 0), rgb(255, 255, 255));&quot;&gt;❌&amp;nbsp;No Malware Scanning&lt;/span&gt;&lt;br&gt;&lt;span style=&quot;background-color: transparent; color: light-dark(rgb(0, 0, 0), rgb(255, 255, 255));&quot;&gt;❓ Verification May Be Skipped&lt;/span&gt;&lt;br&gt;&lt;span style=&quot;background-color: transparent; color: light-dark(rgb(0, 0, 0), rgb(255, 255, 255));&quot;&gt;⚠️ No Compliance Monitoring&lt;/span&gt;" style="text;strokeColor=none;align=left;fillColor=none;html=1;verticalAlign=middle;whiteSpace=wrap;rounded=0;" parent="1" vertex="1">
          <mxGeometry x="4830" y="1159.5" width="230" height="6" as="geometry" />
        </mxCell>
        <mxCell id="03RfwMxz8nHa0Dh4N93t-45" value="" style="sketch=0;pointerEvents=1;shadow=0;dashed=0;html=1;strokeColor=none;fillColor=#005F4B;labelPosition=center;verticalLabelPosition=bottom;verticalAlign=top;align=center;outlineConnect=0;shape=mxgraph.veeam2.usb_drive;" parent="1" vertex="1">
          <mxGeometry x="4690" y="1128.5" width="40" height="17" as="geometry" />
        </mxCell>
        <mxCell id="03RfwMxz8nHa0Dh4N93t-46" value="&lt;div style=&quot;text-align: left;&quot;&gt;&lt;b style=&quot;background-color: transparent; color: light-dark(rgb(0, 0, 0), rgb(255, 255, 255));&quot;&gt;&lt;font style=&quot;font-size: 18px;&quot;&gt;Rebuild Laptop Workstation&lt;/font&gt;&lt;/b&gt;&lt;/div&gt;&lt;div style=&quot;text-align: left;&quot;&gt;&lt;b&gt;&lt;font style=&quot;font-size: 18px;&quot;&gt;&lt;br&gt;&lt;/font&gt;&lt;/b&gt;&lt;/div&gt;&lt;div&gt;&lt;div style=&quot;text-align: left;&quot;&gt;&lt;ul&gt;&lt;li&gt;&lt;span style=&quot;background-color: transparent; color: light-dark(rgb(0, 0, 0), rgb(255, 255, 255));&quot;&gt;Device Type: Single brand laptop model&lt;/span&gt;&lt;/li&gt;&lt;li&gt;&lt;span style=&quot;background-color: transparent; color: light-dark(rgb(0, 0, 0), rgb(255, 255, 255));&quot;&gt;Process: Standardized rebuild procedure&lt;/span&gt;&lt;/li&gt;&lt;li&gt;&lt;span style=&quot;background-color: transparent; color: light-dark(rgb(0, 0, 0), rgb(255, 255, 255));&quot;&gt;Connection: Client A WiFi&lt;/span&gt;&lt;/li&gt;&lt;li&gt;&lt;span style=&quot;background-color: transparent; color: light-dark(rgb(0, 0, 0), rgb(255, 255, 255));&quot;&gt;BIOS Downloads: Manufacturer website&lt;/span&gt;&lt;/li&gt;&lt;li&gt;&lt;span style=&quot;background-color: transparent;&quot;&gt;&lt;font style=&quot;color: light-dark(rgb(0, 0, 0), rgb(255, 0, 0));&quot;&gt;Security Gap: No hash verification&lt;/font&gt;&lt;/span&gt;&lt;/li&gt;&lt;/ul&gt;&lt;/div&gt;&lt;/div&gt;" style="text;strokeColor=none;align=center;fillColor=none;html=1;verticalAlign=middle;whiteSpace=wrap;rounded=0;" parent="1" vertex="1">
          <mxGeometry x="4670" y="708" width="370" height="30" as="geometry" />
        </mxCell>
        <mxCell id="03RfwMxz8nHa0Dh4N93t-47" value="&lt;br&gt;&lt;div&gt;&lt;div style=&quot;text-align: left;&quot;&gt;&lt;br&gt;&lt;/div&gt;&lt;/div&gt;" style="rounded=0;whiteSpace=wrap;html=1;strokeColor=light-dark(#000000,#66B2FF);" parent="1" vertex="1">
          <mxGeometry x="4640" y="1349.5" width="510" height="140" as="geometry" />
        </mxCell>
        <mxCell id="03RfwMxz8nHa0Dh4N93t-48" value="Laptop to rebuild" style="text;strokeColor=none;align=center;fillColor=none;html=1;verticalAlign=middle;whiteSpace=wrap;rounded=0;rotation=0;" parent="1" vertex="1">
          <mxGeometry x="4635.65" y="1486.5" width="168.7" height="26" as="geometry" />
        </mxCell>
        <mxCell id="03RfwMxz8nHa0Dh4N93t-49" value="❓ Verification may be skipped&lt;div&gt;&lt;font style=&quot;color: light-dark(rgb(0, 0, 0), rgb(255, 0, 0));&quot;&gt;Potential malware propagation pat&lt;/font&gt;h&lt;/div&gt;" style="text;whiteSpace=wrap;html=1;" parent="1" vertex="1">
          <mxGeometry x="4900" y="1269.5" width="290" height="40" as="geometry" />
        </mxCell>
        <mxCell id="03RfwMxz8nHa0Dh4N93t-51" value="" style="sketch=0;aspect=fixed;pointerEvents=1;shadow=0;dashed=0;html=1;strokeColor=none;labelPosition=center;verticalLabelPosition=bottom;verticalAlign=top;align=center;fillColor=#00188D;shape=mxgraph.azure.laptop" parent="1" vertex="1">
          <mxGeometry x="4690" y="1436.5" width="60" height="36" as="geometry" />
        </mxCell>
        <mxCell id="03RfwMxz8nHa0Dh4N93t-52" value="USB security gaps" style="text;whiteSpace=wrap;html=1;" parent="1" vertex="1">
          <mxGeometry x="4660" y="1159.5" width="130" height="40" as="geometry" />
        </mxCell>
        <mxCell id="03RfwMxz8nHa0Dh4N93t-55" value="" style="endArrow=classic;html=1;rounded=0;entryX=0.5;entryY=0;entryDx=0;entryDy=0;strokeColor=light-dark(#000000,#FF0000);" parent="1" source="03RfwMxz8nHa0Dh4N93t-43" target="03RfwMxz8nHa0Dh4N93t-47" edge="1">
          <mxGeometry width="50" height="50" relative="1" as="geometry">
            <mxPoint x="4290" y="1289.5" as="sourcePoint" />
            <mxPoint x="4340" y="1239.5" as="targetPoint" />
          </mxGeometry>
        </mxCell>
        <mxCell id="03RfwMxz8nHa0Dh4N93t-56" value="&lt;div style=&quot;text-align: left;&quot;&gt;&lt;div&gt;❌ No pre-rebuild malware scan&amp;nbsp;&lt;/div&gt;&lt;div&gt;❌ No post-build verification&amp;nbsp;&lt;/div&gt;&lt;div&gt;❓ Build errors undetected&amp;nbsp;&lt;/div&gt;&lt;div&gt;⚠️ Quality control gaps&lt;/div&gt;&lt;/div&gt;" style="text;strokeColor=none;align=center;fillColor=none;html=1;verticalAlign=middle;whiteSpace=wrap;rounded=0;" parent="1" vertex="1">
          <mxGeometry x="4730" y="1404.5" width="370" height="30" as="geometry" />
        </mxCell>
        <mxCell id="03RfwMxz8nHa0Dh4N93t-58" value="" style="rounded=0;whiteSpace=wrap;html=1;strokeColor=light-dark(#000000,#4BDFFF);" parent="1" vertex="1">
          <mxGeometry x="4640" y="869.5" width="510" height="129" as="geometry" />
        </mxCell>
        <mxCell id="03RfwMxz8nHa0Dh4N93t-59" value="" style="sketch=0;aspect=fixed;pointerEvents=1;shadow=0;dashed=0;html=1;strokeColor=none;labelPosition=center;verticalLabelPosition=bottom;verticalAlign=top;align=center;fillColor=light-dark(#00188D,#FF9999);shape=mxgraph.azure.laptop" parent="1" vertex="1">
          <mxGeometry x="4670" y="895.5" width="60" height="36" as="geometry" />
        </mxCell>
        <mxCell id="03RfwMxz8nHa0Dh4N93t-60" value="&lt;span style=&quot;text-align: left;&quot;&gt;Rebuilding Engineer&#39;s laptop (Client A managed)&lt;/span&gt;" style="text;strokeColor=none;align=center;fillColor=none;html=1;verticalAlign=middle;whiteSpace=wrap;rounded=0;rotation=0;" parent="1" vertex="1">
          <mxGeometry x="4650" y="949.5" width="168.7" height="26" as="geometry" />
        </mxCell>
        <mxCell id="03RfwMxz8nHa0Dh4N93t-61" value="&lt;div style=&quot;text-align: left;&quot;&gt;- Simultaneous connections: WiFi + VPN&amp;nbsp;&lt;/div&gt;&lt;div style=&quot;text-align: left;&quot;&gt;- VPN: Required for runbook access&amp;nbsp;&lt;/div&gt;&lt;div style=&quot;text-align: left;&quot;&gt;- WiFi: Required for BIOS firmware downloads&amp;nbsp;&lt;/div&gt;&lt;div style=&quot;text-align: left;&quot;&gt;&lt;br&gt;&lt;/div&gt;&lt;div style=&quot;text-align: left;&quot;&gt;❌ No malware scan before use as build source&lt;br&gt;❌Dual network connections create security gaps&lt;br&gt;⚠️ No network separation during build process&lt;br&gt;⚠️ Multiple connection paths increase attack risk&lt;/div&gt;" style="text;strokeColor=none;align=center;fillColor=none;html=1;verticalAlign=middle;whiteSpace=wrap;rounded=0;" parent="1" vertex="1">
          <mxGeometry x="4780" y="919" width="370" height="30" as="geometry" />
        </mxCell>
        <mxCell id="03RfwMxz8nHa0Dh4N93t-62" value="" style="endArrow=classic;html=1;rounded=0;entryX=0.5;entryY=0;entryDx=0;entryDy=0;exitX=0.5;exitY=1;exitDx=0;exitDy=0;" parent="1" source="03RfwMxz8nHa0Dh4N93t-58" target="03RfwMxz8nHa0Dh4N93t-43" edge="1">
          <mxGeometry width="50" height="50" relative="1" as="geometry">
            <mxPoint x="4860" y="999.5" as="sourcePoint" />
            <mxPoint x="4760" y="1149.5" as="targetPoint" />
          </mxGeometry>
        </mxCell>
        <mxCell id="03RfwMxz8nHa0Dh4N93t-63" value="laptop image copied to USB&lt;div&gt;&lt;font style=&quot;color: light-dark(rgb(0, 0, 0), rgb(255, 0, 0));&quot;&gt;Potential malware propagation pat&lt;/font&gt;h&lt;/div&gt;" style="text;whiteSpace=wrap;html=1;" parent="1" vertex="1">
          <mxGeometry x="4900" y="1019.5" width="290" height="40" as="geometry" />
        </mxCell>
        <mxCell id="MMNzTw3OOVt4LOCkiLiI-2" value="" style="sketch=0;outlineConnect=0;fontColor=#232F3E;gradientColor=none;fillColor=#232F3D;strokeColor=none;dashed=0;verticalLabelPosition=bottom;verticalAlign=top;align=center;html=1;fontSize=12;fontStyle=0;aspect=fixed;pointerEvents=1;shape=mxgraph.aws4.user;" vertex="1" parent="1">
          <mxGeometry x="4764.35" y="549.5" width="40" height="40" as="geometry" />
        </mxCell>
        <mxCell id="MMNzTw3OOVt4LOCkiLiI-4" value="Laptop Builder" style="text;strokeColor=none;align=center;fillColor=none;html=1;verticalAlign=middle;whiteSpace=wrap;rounded=0;" vertex="1" parent="1">
          <mxGeometry x="4754.35" y="590.5" width="60" height="30" as="geometry" />
        </mxCell>
        <mxCell id="MMNzTw3OOVt4LOCkiLiI-5" value="" style="sketch=0;outlineConnect=0;fontColor=#232F3E;gradientColor=none;fillColor=#232F3D;strokeColor=none;dashed=0;verticalLabelPosition=bottom;verticalAlign=top;align=center;html=1;fontSize=12;fontStyle=0;aspect=fixed;pointerEvents=1;shape=mxgraph.aws4.user;" vertex="1" parent="1">
          <mxGeometry x="2160" y="490" width="40" height="40" as="geometry" />
        </mxCell>
        <mxCell id="MMNzTw3OOVt4LOCkiLiI-6" value="Tech Consultant with Laptop Building Ubuntu Device&lt;div&gt;&amp;nbsp;&lt;b&gt;(Tech Consultant Laptop + USB)&lt;/b&gt;&lt;/div&gt;" style="text;strokeColor=none;align=center;fillColor=none;html=1;verticalAlign=middle;whiteSpace=wrap;rounded=0;" vertex="1" parent="1">
          <mxGeometry x="2136.46" y="552" width="223.54" height="59" as="geometry" />
        </mxCell>
        <mxCell id="MMNzTw3OOVt4LOCkiLiI-16" value="&lt;b&gt;&lt;font style=&quot;font-size: 14px;&quot;&gt;Client A WiFi&lt;/font&gt;&lt;/b&gt;" style="text;strokeColor=none;align=center;fillColor=none;html=1;verticalAlign=middle;whiteSpace=wrap;rounded=0;" vertex="1" parent="1">
          <mxGeometry x="2024.9" y="700" width="163.13" height="59" as="geometry" />
        </mxCell>
        <mxCell id="MMNzTw3OOVt4LOCkiLiI-18" value="" style="verticalLabelPosition=bottom;sketch=0;html=1;fillColor=light-dark(#9B6A31,#CBCBCB);strokeColor=none;verticalAlign=top;pointerEvents=1;align=center;shape=mxgraph.cisco_safe.security_icons.nac;" vertex="1" parent="1">
          <mxGeometry x="2065" y="894.998" width="50" height="50" as="geometry" />
        </mxCell>
        <mxCell id="MMNzTw3OOVt4LOCkiLiI-19" value="NAC :&amp;nbsp;&lt;div&gt;Network Access Control&lt;/div&gt;" style="text;strokeColor=none;align=center;fillColor=none;html=1;verticalAlign=middle;whiteSpace=wrap;rounded=0;" vertex="1" parent="1">
          <mxGeometry x="2008.75" y="956" width="170" height="30" as="geometry" />
        </mxCell>
        <mxCell id="MMNzTw3OOVt4LOCkiLiI-20" value="" style="sketch=0;outlineConnect=0;fontColor=#232F3E;gradientColor=none;fillColor=light-dark(#9B6A31,#CBCBCB);strokeColor=none;dashed=0;verticalLabelPosition=bottom;verticalAlign=top;align=center;html=1;fontSize=12;fontStyle=0;aspect=fixed;pointerEvents=1;shape=mxgraph.aws4.generic_firewall;" vertex="1" parent="1">
          <mxGeometry x="2065.75" y="1032" width="50.82" height="43" as="geometry" />
        </mxCell>
        <mxCell id="MMNzTw3OOVt4LOCkiLiI-22" value="Corporate Firewall" style="text;strokeColor=none;align=center;fillColor=none;html=1;verticalAlign=middle;whiteSpace=wrap;rounded=0;" vertex="1" parent="1">
          <mxGeometry x="2005.75" y="1075" width="170" height="30" as="geometry" />
        </mxCell>
        <mxCell id="MMNzTw3OOVt4LOCkiLiI-23" value="" style="sketch=0;verticalLabelPosition=bottom;sketch=0;aspect=fixed;html=1;verticalAlign=top;strokeColor=none;fillColor=light-dark(#9B6A31,#CBCBCB);align=center;outlineConnect=0;pointerEvents=1;shape=mxgraph.citrix2.dns;strokeWidth=3;" vertex="1" parent="1">
          <mxGeometry x="2065.75" y="1140" width="50" height="50" as="geometry" />
        </mxCell>
        <mxCell id="MMNzTw3OOVt4LOCkiLiI-24" value="Managed DNS" style="text;strokeColor=none;align=center;fillColor=none;html=1;verticalAlign=middle;whiteSpace=wrap;rounded=0;" vertex="1" parent="1">
          <mxGeometry x="2008.75" y="1190" width="170" height="30" as="geometry" />
        </mxCell>
        <mxCell id="MMNzTw3OOVt4LOCkiLiI-26" value="" style="sketch=0;aspect=fixed;pointerEvents=1;shadow=0;dashed=0;html=1;labelPosition=center;verticalLabelPosition=bottom;verticalAlign=top;align=center;shape=mxgraph.azure.laptop" vertex="1" parent="1">
          <mxGeometry x="2204" y="494" width="60" height="36" as="geometry" />
        </mxCell>
        <mxCell id="MMNzTw3OOVt4LOCkiLiI-35" value="" style="sketch=0;outlineConnect=0;fontColor=#232F3E;gradientColor=none;fillColor=#232F3D;strokeColor=none;dashed=0;verticalLabelPosition=bottom;verticalAlign=top;align=center;html=1;fontSize=12;fontStyle=0;aspect=fixed;pointerEvents=1;shape=mxgraph.aws4.internet_alt2;" vertex="1" parent="1">
          <mxGeometry x="2050" y="1687.5" width="60" height="60" as="geometry" />
        </mxCell>
        <mxCell id="MMNzTw3OOVt4LOCkiLiI-36" value="" style="sketch=0;outlineConnect=0;dashed=0;verticalLabelPosition=bottom;verticalAlign=top;align=center;html=1;fontSize=12;fontStyle=0;aspect=fixed;pointerEvents=1;shape=mxgraph.aws4.internet_gateway;fillColor=light-dark(#9B6A31,#CBCBCB);strokeColor=#B46504;" vertex="1" parent="1">
          <mxGeometry x="2065.75" y="1255" width="50" height="50" as="geometry" />
        </mxCell>
        <mxCell id="MMNzTw3OOVt4LOCkiLiI-37" value="Client A Internet Gateway" style="text;strokeColor=none;align=center;fillColor=none;html=1;verticalAlign=middle;whiteSpace=wrap;rounded=0;" vertex="1" parent="1">
          <mxGeometry x="2001" y="1305" width="170" height="30" as="geometry" />
        </mxCell>
        <mxCell id="MMNzTw3OOVt4LOCkiLiI-38" value="" style="verticalLabelPosition=bottom;html=1;verticalAlign=top;strokeWidth=1;align=center;outlineConnect=0;dashed=0;outlineConnect=0;shape=mxgraph.aws3d.file;aspect=fixed;strokeColor=#292929;" vertex="1" parent="1">
          <mxGeometry x="2212" y="1683" width="19.63" height="45" as="geometry" />
        </mxCell>
        <mxCell id="MMNzTw3OOVt4LOCkiLiI-39" value="Internet" style="text;strokeColor=none;align=center;fillColor=none;html=1;verticalAlign=middle;whiteSpace=wrap;rounded=0;" vertex="1" parent="1">
          <mxGeometry x="1997.2500000000002" y="1745" width="170" height="30" as="geometry" />
        </mxCell>
        <mxCell id="MMNzTw3OOVt4LOCkiLiI-43" value="" style="shape=mxgraph.networks2.icon;aspect=fixed;fillColor=#EDEDED;strokeColor=#000000;gradientColor=#5B6163;network2IconShadow=1;network2bgFillColor=none;labelPosition=center;verticalLabelPosition=bottom;align=center;verticalAlign=top;network2Icon=mxgraph.networks2.mobile_network;network2IconXOffset=0.0049;network2IconW=0.5297;network2IconH=1.02;shadow=0;dashed=0;spacingTop=3;fontFamily=Helvetica;fontSize=12;fontColor=#4277BB;labelBackgroundColor=default;" vertex="1" parent="1">
          <mxGeometry x="2327.51" y="933" width="26.484999999999996" height="51" as="geometry" />
        </mxCell>
        <mxCell id="MMNzTw3OOVt4LOCkiLiI-44" value=" Mobile Carrier Network" style="text;strokeColor=none;align=center;fillColor=none;html=1;verticalAlign=middle;whiteSpace=wrap;rounded=0;" vertex="1" parent="1">
          <mxGeometry x="2256.5" y="994" width="170" height="30" as="geometry" />
        </mxCell>
        <mxCell id="MMNzTw3OOVt4LOCkiLiI-50" value="BIOS Firmware Download" style="text;strokeColor=none;align=center;fillColor=none;html=1;verticalAlign=middle;whiteSpace=wrap;rounded=0;" vertex="1" parent="1">
          <mxGeometry x="2149" y="1738" width="170" height="30" as="geometry" />
        </mxCell>
        <mxCell id="MMNzTw3OOVt4LOCkiLiI-52" value="&lt;b&gt;&lt;font style=&quot;font-size: 14px;&quot;&gt;Mobile Hotspot&lt;/font&gt;&lt;/b&gt;" style="text;strokeColor=none;align=center;fillColor=none;html=1;verticalAlign=middle;whiteSpace=wrap;rounded=0;" vertex="1" parent="1">
          <mxGeometry x="2256.5" y="700.5" width="163.13" height="59" as="geometry" />
        </mxCell>
        <mxCell id="MMNzTw3OOVt4LOCkiLiI-59" value="" style="endArrow=none;startArrow=classic;html=1;rounded=0;elbow=vertical;strokeColor=light-dark(#000000,#FF0000);endFill=0;strokeWidth=2;" edge="1" parent="1">
          <mxGeometry width="50" height="50" relative="1" as="geometry">
            <mxPoint x="2110" y="720" as="sourcePoint" />
            <mxPoint x="2210" y="630" as="targetPoint" />
          </mxGeometry>
        </mxCell>
        <mxCell id="MMNzTw3OOVt4LOCkiLiI-68" value="" style="sketch=0;verticalLabelPosition=bottom;sketch=0;aspect=fixed;html=1;verticalAlign=top;strokeColor=none;fillColor=light-dark(#9B6A31,#CBCBCB);align=center;outlineConnect=0;pointerEvents=1;shape=mxgraph.citrix2.router;shadow=0;dashed=0;spacingTop=3;fontFamily=Helvetica;fontSize=12;fontColor=#4277BB;labelBackgroundColor=default;" vertex="1" parent="1">
          <mxGeometry x="2068.75" y="1365" width="50" height="50" as="geometry" />
        </mxCell>
        <mxCell id="MMNzTw3OOVt4LOCkiLiI-70" value="Corporate Router" style="text;strokeColor=none;align=center;fillColor=none;html=1;verticalAlign=middle;whiteSpace=wrap;rounded=0;" vertex="1" parent="1">
          <mxGeometry x="2008.75" y="1425" width="170" height="30" as="geometry" />
        </mxCell>
        <mxCell id="MMNzTw3OOVt4LOCkiLiI-72" value="" style="sketch=0;outlineConnect=0;fontColor=#232F3E;gradientColor=none;fillColor=light-dark(#9B6A31,#EDEDED);strokeColor=none;dashed=0;verticalLabelPosition=bottom;verticalAlign=top;align=center;html=1;fontSize=12;fontStyle=0;aspect=fixed;pointerEvents=1;shape=mxgraph.aws4.general_access_points;shadow=0;spacingTop=3;fontFamily=Helvetica;labelBackgroundColor=default;" vertex="1" parent="1">
          <mxGeometry x="2060" y="770" width="54.16" height="65" as="geometry" />
        </mxCell>
        <mxCell id="MMNzTw3OOVt4LOCkiLiI-77" value="WiFi Access Points" style="text;strokeColor=none;align=center;fillColor=none;html=1;verticalAlign=middle;whiteSpace=wrap;rounded=0;" vertex="1" parent="1">
          <mxGeometry x="2002.08" y="831" width="170" height="30" as="geometry" />
        </mxCell>
        <mxCell id="MMNzTw3OOVt4LOCkiLiI-82" value="" style="endArrow=none;startArrow=classic;html=1;rounded=0;elbow=vertical;strokeColor=light-dark(#000000,#FF0000);endFill=0;strokeWidth=2;entryX=0.518;entryY=0.147;entryDx=0;entryDy=0;entryPerimeter=0;" edge="1" parent="1" target="MMNzTw3OOVt4LOCkiLiI-25">
          <mxGeometry width="50" height="50" relative="1" as="geometry">
            <mxPoint x="2089" y="880" as="sourcePoint" />
            <mxPoint x="1770" y="700" as="targetPoint" />
          </mxGeometry>
        </mxCell>
        <mxCell id="MMNzTw3OOVt4LOCkiLiI-85" value="" style="endArrow=none;startArrow=classic;html=1;rounded=0;elbow=vertical;strokeColor=light-dark(#000000,#FF0000);endFill=0;strokeWidth=2;" edge="1" parent="1">
          <mxGeometry width="50" height="50" relative="1" as="geometry">
            <mxPoint x="1800" y="797" as="sourcePoint" />
            <mxPoint x="1800" y="760" as="targetPoint" />
          </mxGeometry>
        </mxCell>
        <mxCell id="MMNzTw3OOVt4LOCkiLiI-86" value="" style="endArrow=none;startArrow=classic;html=1;rounded=0;elbow=vertical;strokeColor=light-dark(#000000,#FF0000);endFill=0;strokeWidth=2;entryX=0.518;entryY=0.147;entryDx=0;entryDy=0;entryPerimeter=0;" edge="1" parent="1">
          <mxGeometry width="50" height="50" relative="1" as="geometry">
            <mxPoint x="2091" y="1020" as="sourcePoint" />
            <mxPoint x="2091" y="997" as="targetPoint" />
          </mxGeometry>
        </mxCell>
        <mxCell id="MMNzTw3OOVt4LOCkiLiI-87" value="" style="endArrow=none;startArrow=classic;html=1;rounded=0;elbow=vertical;strokeColor=light-dark(#000000,#FF0000);endFill=0;strokeWidth=2;entryX=0.518;entryY=0.147;entryDx=0;entryDy=0;entryPerimeter=0;" edge="1" parent="1">
          <mxGeometry width="50" height="50" relative="1" as="geometry">
            <mxPoint x="2093" y="1135" as="sourcePoint" />
            <mxPoint x="2093" y="1112" as="targetPoint" />
          </mxGeometry>
        </mxCell>
        <mxCell id="MMNzTw3OOVt4LOCkiLiI-88" value="" style="endArrow=none;startArrow=classic;html=1;rounded=0;elbow=vertical;strokeColor=light-dark(#000000,#FF0000);endFill=0;strokeWidth=2;entryX=0.518;entryY=0.147;entryDx=0;entryDy=0;entryPerimeter=0;" edge="1" parent="1">
          <mxGeometry width="50" height="50" relative="1" as="geometry">
            <mxPoint x="2092" y="1245" as="sourcePoint" />
            <mxPoint x="2092" y="1222" as="targetPoint" />
          </mxGeometry>
        </mxCell>
        <mxCell id="MMNzTw3OOVt4LOCkiLiI-89" value="" style="endArrow=none;startArrow=classic;html=1;rounded=0;elbow=vertical;strokeColor=light-dark(#000000,#FF0000);endFill=0;strokeWidth=2;entryX=0.518;entryY=0.147;entryDx=0;entryDy=0;entryPerimeter=0;" edge="1" parent="1">
          <mxGeometry width="50" height="50" relative="1" as="geometry">
            <mxPoint x="2093" y="1355" as="sourcePoint" />
            <mxPoint x="2093" y="1332" as="targetPoint" />
          </mxGeometry>
        </mxCell>
        <mxCell id="MMNzTw3OOVt4LOCkiLiI-91" value="&lt;span style=&quot;color: rgba(0, 0, 0, 0); font-family: monospace; font-size: 0px; text-align: start; text-wrap-mode: nowrap;&quot;&gt;HTTPS:443 (Monitored)&lt;/span&gt;" style="text;strokeColor=none;align=center;fillColor=none;html=1;verticalAlign=middle;whiteSpace=wrap;rounded=0;" vertex="1" parent="1">
          <mxGeometry x="2086.5" y="656" width="170" height="30" as="geometry" />
        </mxCell>
        <mxCell id="MMNzTw3OOVt4LOCkiLiI-92" value="&lt;span style=&quot;background-color: light-dark(rgb(255, 255, 255), rgb(237, 237, 237));&quot;&gt;HTTPS:443&amp;nbsp;&lt;/span&gt;" style="text;strokeColor=none;align=center;fillColor=none;html=1;verticalAlign=middle;whiteSpace=wrap;rounded=0;" vertex="1" parent="1">
          <mxGeometry x="2080" y="648.5" width="170" height="30" as="geometry" />
        </mxCell>
        <mxCell id="MMNzTw3OOVt4LOCkiLiI-93" value="" style="endArrow=none;startArrow=classic;html=1;rounded=0;elbow=vertical;strokeColor=light-dark(#000000,#FF0000);endFill=0;strokeWidth=2;" edge="1" parent="1">
          <mxGeometry width="50" height="50" relative="1" as="geometry">
            <mxPoint x="2340" y="720" as="sourcePoint" />
            <mxPoint x="2230" y="630" as="targetPoint" />
          </mxGeometry>
        </mxCell>
        <mxCell id="MMNzTw3OOVt4LOCkiLiI-94" value="&lt;span style=&quot;background-color: light-dark(rgb(255, 255, 255), rgb(237, 237, 237));&quot;&gt;HTTPS:443&amp;nbsp;&lt;/span&gt;" style="text;strokeColor=none;align=center;fillColor=none;html=1;verticalAlign=middle;whiteSpace=wrap;rounded=0;" vertex="1" parent="1">
          <mxGeometry x="2204" y="670" width="170" height="30" as="geometry" />
        </mxCell>
        <mxCell id="MMNzTw3OOVt4LOCkiLiI-95" value="" style="endArrow=none;startArrow=classic;html=1;rounded=0;elbow=vertical;strokeColor=light-dark(#000000,#FF0000);endFill=0;strokeWidth=2;entryX=0.5;entryY=1;entryDx=0;entryDy=0;entryPerimeter=0;" edge="1" parent="1" target="MMNzTw3OOVt4LOCkiLiI-25">
          <mxGeometry width="50" height="50" relative="1" as="geometry">
            <mxPoint x="2200" y="1650" as="sourcePoint" />
            <mxPoint x="2260" y="650" as="targetPoint" />
          </mxGeometry>
        </mxCell>
        <mxCell id="MMNzTw3OOVt4LOCkiLiI-96" value="" style="endArrow=none;startArrow=classic;html=1;rounded=0;elbow=vertical;strokeColor=light-dark(#000000,#FF0000);endFill=0;strokeWidth=2;entryX=0.5;entryY=1;entryDx=0;entryDy=0;entryPerimeter=0;exitX=0.5;exitY=0;exitDx=0;exitDy=0;exitPerimeter=0;" edge="1" parent="1" source="MMNzTw3OOVt4LOCkiLiI-64" target="MMNzTw3OOVt4LOCkiLiI-27">
          <mxGeometry width="50" height="50" relative="1" as="geometry">
            <mxPoint x="2255" y="1760" as="sourcePoint" />
            <mxPoint x="2140" y="1590" as="targetPoint" />
          </mxGeometry>
        </mxCell>
        <mxCell id="MMNzTw3OOVt4LOCkiLiI-97" value="" style="sketch=0;outlineConnect=0;fontColor=#232F3E;gradientColor=none;fillColor=light-dark(#000000, #b17dff);strokeColor=none;dashed=0;verticalLabelPosition=bottom;verticalAlign=top;align=center;html=1;fontSize=12;fontStyle=0;aspect=fixed;pointerEvents=1;shape=mxgraph.aws4.vpn_gateway;shadow=0;spacingTop=3;fontFamily=Helvetica;labelBackgroundColor=default;" vertex="1" parent="1">
          <mxGeometry x="2610" y="730" width="66" height="66" as="geometry" />
        </mxCell>
        <mxCell id="MMNzTw3OOVt4LOCkiLiI-98" value="VPN" style="text;strokeColor=none;align=center;fillColor=none;html=1;verticalAlign=middle;whiteSpace=wrap;rounded=0;" vertex="1" parent="1">
          <mxGeometry x="2559" y="802.5" width="170" height="30" as="geometry" />
        </mxCell>
        <mxCell id="MMNzTw3OOVt4LOCkiLiI-108" value="" style="endArrow=none;startArrow=classic;html=1;rounded=0;elbow=vertical;strokeColor=light-dark(#000000,#FF0000);endFill=0;strokeWidth=2;entryX=0.75;entryY=1;entryDx=0;entryDy=0;" edge="1" parent="1" target="MMNzTw3OOVt4LOCkiLiI-6">
          <mxGeometry width="50" height="50" relative="1" as="geometry">
            <mxPoint x="2620" y="720" as="sourcePoint" />
            <mxPoint x="2240" y="630" as="targetPoint" />
          </mxGeometry>
        </mxCell>
        <mxCell id="MMNzTw3OOVt4LOCkiLiI-107" value="&lt;span style=&quot;background-color: light-dark(rgb(255, 255, 255), rgb(237, 237, 237));&quot;&gt;SSH&lt;/span&gt;" style="text;strokeColor=none;align=center;fillColor=none;html=1;verticalAlign=middle;whiteSpace=wrap;rounded=0;" vertex="1" parent="1">
          <mxGeometry x="2320" y="643" width="170" height="30" as="geometry" />
        </mxCell>
        <mxCell id="MMNzTw3OOVt4LOCkiLiI-114" value="Build Runbook Access&lt;div&gt;FDE password creation&lt;/div&gt;&lt;div&gt;Email the FDE password&lt;/div&gt;" style="text;strokeColor=none;align=center;fillColor=none;html=1;verticalAlign=middle;whiteSpace=wrap;rounded=0;" vertex="1" parent="1">
          <mxGeometry x="2580" y="648.5" width="163.13" height="59" as="geometry" />
        </mxCell>
        <mxCell id="MMNzTw3OOVt4LOCkiLiI-115" value="" style="sketch=0;outlineConnect=0;fontColor=#232F3E;gradientColor=none;fillColor=#232F3D;strokeColor=none;dashed=0;verticalLabelPosition=bottom;verticalAlign=top;align=center;html=1;fontSize=12;fontStyle=0;aspect=fixed;pointerEvents=1;shape=mxgraph.aws4.user;" vertex="1" parent="1">
          <mxGeometry x="3193.54" y="634.5" width="40" height="40" as="geometry" />
        </mxCell>
        <mxCell id="MMNzTw3OOVt4LOCkiLiI-116" value="Tech Consultant with Laptop Building Ubuntu Device" style="text;strokeColor=none;align=center;fillColor=none;html=1;verticalAlign=middle;whiteSpace=wrap;rounded=0;" vertex="1" parent="1">
          <mxGeometry x="3170" y="696.5" width="163.13" height="59" as="geometry" />
        </mxCell>
        <mxCell id="MMNzTw3OOVt4LOCkiLiI-117" value="" style="sketch=0;aspect=fixed;pointerEvents=1;shadow=0;dashed=0;html=1;labelPosition=center;verticalLabelPosition=bottom;verticalAlign=top;align=center;shape=mxgraph.azure.laptop" vertex="1" parent="1">
          <mxGeometry x="3237.54" y="638.5" width="60" height="36" as="geometry" />
        </mxCell>
        <mxCell id="MMNzTw3OOVt4LOCkiLiI-119" value="" style="sketch=0;pointerEvents=1;shadow=0;dashed=0;html=1;strokeColor=none;fillColor=light-dark(#000504, #6ec0ae);labelPosition=center;verticalLabelPosition=bottom;verticalAlign=top;align=center;outlineConnect=0;shape=mxgraph.veeam2.usb_drive;" vertex="1" parent="1">
          <mxGeometry x="3231.56" y="823" width="40" height="17" as="geometry" />
        </mxCell>
        <mxCell id="MMNzTw3OOVt4LOCkiLiI-120" value="" style="endArrow=none;startArrow=classic;html=1;rounded=0;elbow=vertical;strokeColor=light-dark(#000000,#FF0000);endFill=0;strokeWidth=2;entryX=0.5;entryY=1;entryDx=0;entryDy=0;" edge="1" parent="1" target="MMNzTw3OOVt4LOCkiLiI-116">
          <mxGeometry width="50" height="50" relative="1" as="geometry">
            <mxPoint x="3252" y="814.5" as="sourcePoint" />
            <mxPoint x="2541" y="874.5" as="targetPoint" />
          </mxGeometry>
        </mxCell>
        <mxCell id="MMNzTw3OOVt4LOCkiLiI-121" value="USB" style="text;strokeColor=none;align=center;fillColor=none;html=1;verticalAlign=middle;whiteSpace=wrap;rounded=0;" vertex="1" parent="1">
          <mxGeometry x="3170" y="849.5" width="170" height="30" as="geometry" />
        </mxCell>
        <mxCell id="MMNzTw3OOVt4LOCkiLiI-122" value="" style="sketch=0;aspect=fixed;pointerEvents=1;shadow=0;dashed=0;html=1;labelPosition=center;verticalLabelPosition=bottom;verticalAlign=top;align=center;shape=mxgraph.azure.laptop" vertex="1" parent="1">
          <mxGeometry x="3225" y="999.5" width="60" height="36" as="geometry" />
        </mxCell>
        <mxCell id="MMNzTw3OOVt4LOCkiLiI-124" value="" style="sketch=0;pointerEvents=1;shadow=0;dashed=0;html=1;strokeColor=none;fillColor=light-dark(#000504, #6ec0ae);labelPosition=center;verticalLabelPosition=bottom;verticalAlign=top;align=center;outlineConnect=0;shape=mxgraph.veeam2.usb_drive;" vertex="1" parent="1">
          <mxGeometry x="2269" y="503.5" width="40" height="17" as="geometry" />
        </mxCell>
        <mxCell id="MMNzTw3OOVt4LOCkiLiI-125" value="" style="endArrow=none;startArrow=classic;html=1;rounded=0;elbow=vertical;strokeColor=light-dark(#000000,#FF0000);endFill=0;strokeWidth=2;entryX=0.5;entryY=1;entryDx=0;entryDy=0;" edge="1" parent="1">
          <mxGeometry width="50" height="50" relative="1" as="geometry">
            <mxPoint x="3254" y="959.5" as="sourcePoint" />
            <mxPoint x="3254" y="900.5" as="targetPoint" />
          </mxGeometry>
        </mxCell>
        <mxCell id="MMNzTw3OOVt4LOCkiLiI-126" value="Laptops to build" style="text;strokeColor=none;align=center;fillColor=none;html=1;verticalAlign=middle;whiteSpace=wrap;rounded=0;" vertex="1" parent="1">
          <mxGeometry x="3170" y="1055.5" width="170" height="30" as="geometry" />
        </mxCell>
        <mxCell id="MMNzTw3OOVt4LOCkiLiI-127" value="" style="sketch=0;aspect=fixed;pointerEvents=1;shadow=0;dashed=0;html=1;labelPosition=center;verticalLabelPosition=bottom;verticalAlign=top;align=center;shape=mxgraph.azure.laptop" vertex="1" parent="1">
          <mxGeometry x="3251" y="1010.5" width="60" height="36" as="geometry" />
        </mxCell>
        <mxCell id="MMNzTw3OOVt4LOCkiLiI-128" value="" style="sketch=0;aspect=fixed;pointerEvents=1;shadow=0;dashed=0;html=1;labelPosition=center;verticalLabelPosition=bottom;verticalAlign=top;align=center;shape=mxgraph.azure.laptop" vertex="1" parent="1">
          <mxGeometry x="3183.54" y="1010.5" width="60" height="36" as="geometry" />
        </mxCell>
        <mxCell id="MMNzTw3OOVt4LOCkiLiI-129" value="" style="sketch=0;aspect=fixed;pointerEvents=1;shadow=0;dashed=0;html=1;labelPosition=center;verticalLabelPosition=bottom;verticalAlign=top;align=center;shape=mxgraph.azure.laptop" vertex="1" parent="1">
          <mxGeometry x="3273.13" y="1005.5" width="60" height="36" as="geometry" />
        </mxCell>
        <mxCell id="MMNzTw3OOVt4LOCkiLiI-134" value="&lt;b&gt;&lt;font style=&quot;font-size: 20px; background-color: light-dark(#ffffff, var(--ge-dark-color, #121212));&quot;&gt;Build Process Infrastructure&lt;/font&gt;&lt;/b&gt;" style="text;whiteSpace=wrap;html=1;align=center;" vertex="1" parent="1">
          <mxGeometry x="3000" y="408.5" width="472" height="40" as="geometry" />
        </mxCell>
        <mxCell id="MMNzTw3OOVt4LOCkiLiI-135" value="❌ &lt;strong&gt;Mixed-Use Environment:&lt;/strong&gt; Same laptop for daily work + secure builds" style="text;whiteSpace=wrap;html=1;fontFamily=Helvetica;fontSize=12;fontColor=#4277BB;labelBackgroundColor=default;" vertex="1" parent="1">
          <mxGeometry x="3333.13" y="629.5" width="420" height="40" as="geometry" />
        </mxCell>
        <mxCell id="MMNzTw3OOVt4LOCkiLiI-136" value="❌ &lt;strong&gt;No Pre-Build Scanning:&lt;/strong&gt; Source laptop not verified before imaging" style="text;whiteSpace=wrap;html=1;fontFamily=Helvetica;fontSize=12;fontColor=#4277BB;labelBackgroundColor=default;" vertex="1" parent="1">
          <mxGeometry x="3333.13" y="660.5" width="420" height="40" as="geometry" />
        </mxCell>
        <mxCell id="MMNzTw3OOVt4LOCkiLiI-138" value="❌ &lt;strong&gt;USB Reuse:&lt;/strong&gt; Single drive across multiple builds without scanning" style="text;whiteSpace=wrap;html=1;fontFamily=Helvetica;fontSize=12;fontColor=#4277BB;labelBackgroundColor=default;" vertex="1" parent="1">
          <mxGeometry x="3333.13" y="823" width="400" height="40" as="geometry" />
        </mxCell>
        <mxCell id="MMNzTw3OOVt4LOCkiLiI-139" value="" style="endArrow=none;startArrow=classic;html=1;rounded=0;elbow=vertical;strokeColor=light-dark(#000000,#FF0000);endFill=0;strokeWidth=2;exitX=0.368;exitY=0.282;exitDx=0;exitDy=0;exitPerimeter=0;" edge="1" parent="1" source="MMNzTw3OOVt4LOCkiLiI-132">
          <mxGeometry width="50" height="50" relative="1" as="geometry">
            <mxPoint x="2470" y="1768" as="sourcePoint" />
            <mxPoint x="2380" y="1700" as="targetPoint" />
          </mxGeometry>
        </mxCell>
        <mxCell id="MMNzTw3OOVt4LOCkiLiI-140" value="❌Downloaded firmware (unverified)" style="text;whiteSpace=wrap;html=1;fontFamily=Helvetica;fontSize=12;fontColor=#4277BB;labelBackgroundColor=default;" vertex="1" parent="1">
          <mxGeometry x="2750" y="1220" width="210" height="40" as="geometry" />
        </mxCell>
      </root>
    </mxGraphModel>
  </diagram>
</mxfile>
